# xmcd
#
# Track frame offsets:
# 150
# 17727
# 34547
# 49444
# 68535
# 90338
# 102468
# 129612
# 152148
# 161733
# 177195
# 196877
# 207012
# 226822
# 258637
# 274945
# 293389
# 310351
#
# Disc length: 4379 seconds
#
# Revision: 0
# Processed by: cddbd v1.5.2PL0 Copyright (c) Steve Scherf et al.
# Submitted via: Audion 3.0.2 (http://www.panic.com/audion/)
#
DISCID=f4111912
DTITLE=Antonio Meneses -  Bach Cello Suites
DYEAR=1900
DGENRE=
TTITLE0=#4
TTITLE1=#4
TTITLE2=#4
TTITLE3=#4
TTITLE4=#4
TTITLE5=#4
TTITLE6=#5
TTITLE7=#5
TTITLE8=#5
TTITLE9=#5
TTITLE10=#5
TTITLE11=#5
TTITLE12=#6
TTITLE13=#6
TTITLE14=#6
TTITLE15=#6
TTITLE16=#6
TTITLE17=#6
EXTD=
EXTT0=
EXTT1=
EXTT2=
EXTT3=
EXTT4=
EXTT5=
EXTT6=
EXTT7=
EXTT8=
EXTT9=
EXTT10=
EXTT11=
EXTT12=
EXTT13=
EXTT14=
EXTT15=
EXTT16=
EXTT17=
PLAYORDER=
